<?xml version="1.0" encoding="UTF-8" standalone="no"?>
<!-- Created with matplotlib (http://matplotlib.sourceforge.net/) -->

<svg
   xmlns:dc="http://purl.org/dc/elements/1.1/"
   xmlns:cc="http://creativecommons.org/ns#"
   xmlns:rdf="http://www.w3.org/1999/02/22-rdf-syntax-ns#"
   xmlns:svg="http://www.w3.org/2000/svg"
   xmlns="http://www.w3.org/2000/svg"
   xmlns:xlink="http://www.w3.org/1999/xlink"
   xmlns:sodipodi="http://sodipodi.sourceforge.net/DTD/sodipodi-0.dtd"
   xmlns:inkscape="http://www.inkscape.org/namespaces/inkscape"
   height="465.25"
   version="1.1"
   viewBox="0 0 552.6 372.2"
   width="690.75"
   id="svg2"
   inkscape:version="0.48.0 r9654"
   sodipodi:docname="LinearHull3.svg">
  <metadata
     id="metadata76">
    <rdf:RDF>
      <cc:Work
         rdf:about="">
        <dc:format>image/svg+xml</dc:format>
        <dc:type
           rdf:resource="http://purl.org/dc/dcmitype/StillImage" />
      </cc:Work>
    </rdf:RDF>
  </metadata>
  <sodipodi:namedview
     pagecolor="#ffffff"
     bordercolor="#666666"
     borderopacity="1"
     objecttolerance="10"
     gridtolerance="10"
     guidetolerance="10"
     inkscape:pageopacity="0"
     inkscape:pageshadow="2"
     inkscape:window-width="1816"
     inkscape:window-height="956"
     id="namedview74"
     showgrid="false"
     inkscape:zoom="1.2093506"
     inkscape:cx="334.96206"
     inkscape:cy="276.904"
     inkscape:window-x="0"
     inkscape:window-y="0"
     inkscape:window-maximized="0"
     inkscape:current-layer="svg2">
    <inkscape:grid
       type="xygrid"
       id="grid3028"
       empspacing="5"
       visible="true"
       enabled="true"
       snapvisiblegridlinesonly="true" />
  </sodipodi:namedview>
  <defs
     id="defs4"
     style="stroke-linecap:square;stroke-linejoin:round">
    <marker
       inkscape:stockid="Arrow2Lstart"
       orient="auto"
       refY="0"
       refX="0"
       id="Arrow2Lstart"
       style="overflow:visible">
      <path
         id="path3917"
         style="font-size:12px;fill-rule:evenodd;stroke-width:0.625;stroke-linecap:square;stroke-linejoin:round"
         d="M 8.7185878,4.0337352 -2.2072895,0.01601326 8.7185884,-4.0017078 c -1.7454984,2.3720609 -1.7354408,5.6174519 -6e-7,8.035443 z"
         transform="matrix(1.1,0,0,1.1,1.1,0)"
         inkscape:connector-curvature="0" />
    </marker>
    <marker
       inkscape:stockid="Arrow1Lstart"
       orient="auto"
       refY="0"
       refX="0"
       id="Arrow1Lstart"
       style="overflow:visible">
      <path
         id="path3899"
         d="M 0,0 5,-5 -12.5,0 5,5 0,0 z"
         style="fill-rule:evenodd;stroke:#000000;stroke-width:1pt;stroke-linecap:square;stroke-linejoin:round;marker-start:none"
         transform="matrix(0.8,0,0,0.8,10,0)"
         inkscape:connector-curvature="0" />
    </marker>
    <marker
       inkscape:stockid="Arrow2Lend"
       orient="auto"
       refY="0"
       refX="0"
       id="Arrow2Lend"
       style="stroke-linecap:square;stroke-linejoin:round;overflow:visible">
      <path
         id="path3920"
         style="font-size:12px;fill-rule:evenodd;stroke-width:0.625;stroke-linecap:square;stroke-linejoin:round"
         d="M 8.7185878,4.0337352 -2.2072895,0.01601326 8.7185884,-4.0017078 c -1.7454984,2.3720609 -1.7354408,5.6174519 -6e-7,8.035443 z"
         transform="matrix(-1.1,0,0,-1.1,-1.1,0)"
         inkscape:connector-curvature="0" />
    </marker>
    <style
       type="text/css"
       id="style6">
*{stroke-linecap:square;stroke-linejoin:round;}
  </style>
    <defs
       id="defs57">
      <path
         style="stroke-linecap:square;stroke-linejoin:round"
         inkscape:connector-curvature="0"
         id="Cmex10-ae"
         d="m 7.8125,-114.016 q 0,0.532 0.20312,0.735 L 33.1094,-56 8.01562,1.3125 Q 7.8125,1.51562 7.8125,2 q 0,0.73438 0.57812,1.35938 Q 8.98438,4 9.8125,4 10.9844,4 11.7188,2.78125 L 37.2031,-55.3281 q 0.1094,-0.1875 0.1094,-0.6719 0,-0.5 -0.1094,-0.7812 L 11.7188,-114.797 q -0.7813,-1.219 -1.9063,-1.219 -0.82812,0 -1.42188,0.641 -0.57812,0.625 -0.57812,1.359" />
      <path
         style="stroke-linecap:square;stroke-linejoin:round"
         inkscape:connector-curvature="0"
         id="Cmex10-ad"
         d="M 35.5,-114.797 10.0156,-56.7812 Q 9.8125,-56.5 9.8125,-56 q 0,0.4844 0.2031,0.6719 L 35.5,2.78125 Q 35.9844,4 37.3125,4 38.0312,4 38.6719,3.35938 39.3125,2.73438 39.3125,2 q 0,-0.48438 -0.1094,-0.6875 L 14.0156,-56 39.2031,-113.281 q 0.1094,-0.203 0.1094,-0.735 0,-0.734 -0.6406,-1.359 -0.6407,-0.641 -1.3594,-0.641 -1.2813,0 -1.8125,1.219" />
    </defs>
  </defs>
  <g
     id="line2d_1"
     style="stroke:#005c80;stroke-linecap:square;stroke-linejoin:round;stroke-opacity:1"
     transform="translate(0,-12.8)">
    <path
       clip-path="url(#pe14f5807df)"
       d="M 17.4862,371.529 531.794,28.6574"
       style="fill:none;stroke:#005c80;stroke-width:1.60000002;stroke-linecap:square;stroke-linejoin:round;stroke-miterlimit:4;stroke-opacity:1;stroke-dasharray:none"
       id="path17"
       inkscape:connector-curvature="0" />
  </g>
  <g
     id="patch_3"
     style="stroke-width:2.4000001;stroke-linecap:square;stroke-linejoin:round;stroke-miterlimit:4;stroke-dasharray:none"
     transform="translate(0,-12.8)">
    <path
       clip-path="url(#pe14f5807df)"
       d="m 274.64,200.093 q 42.859,-28.572 84.788,-56.525"
       style="fill:none;stroke:#0000ff;stroke-width:2.4000001;stroke-linecap:round;stroke-linejoin:round;stroke-miterlimit:4;stroke-dasharray:none"
       id="path20"
       inkscape:connector-curvature="0" />
    <path
       clip-path="url(#pe14f5807df)"
       d="m 352.771,144.4 6.657,-0.832 -3.329,5.825 -3.328,-4.993 z"
       style="fill:#0000ff;stroke:#0000ff;stroke-width:2.4000001;stroke-linecap:round;stroke-linejoin:round;stroke-miterlimit:4;stroke-dasharray:none"
       id="path22"
       inkscape:connector-curvature="0" />
  </g>
  <g
     id="matplotlib.axis_1"
     style="stroke-linecap:square;stroke-linejoin:round"
     transform="matrix(3.131124,0,0,3.131124,-1196.0967,-414.03845)">
    <g
       id="text_1"
       style="stroke-linecap:square;stroke-linejoin:round">
      <!-- $x$ -->
      <defs
         id="defs26">
        <path
           d="m 7.8125,2.875 q 1.76562,-1.35938 4.9844,-1.35938 3.125,0 5.5156,3 2.3906,3 3.2656,6.56248 l 4.5469,17.7344 q 1.0781,4.8281 1.0781,6.5937 0,2.4844 -1.3906,4.3438 -1.3906,1.8594 -3.8906,1.8594 -3.1719,0 -5.9531,-1.9844 Q 13.1875,37.6406 11.2812,34.5938 9.375,31.5469 8.59375,28.4219 8.40625,27.7812 7.8125,27.7812 l -1.21875,0 q -0.78125,0 -0.78125,0.9376 l 0,0.2812 q 0.96875,3.7188 3.3125,7.25 2.3438,3.5469 5.7344,5.7344 3.4062,2.2031 7.2656,2.2031 3.6562,0 6.6094,-1.9531 2.9531,-1.9532 4.1718,-5.3125 1.7188,3.0625 4.375,5.1562 2.6563,2.1094 5.8282,2.1094 2.1562,0 4.3906,-0.7656 2.25,-0.75 3.6719,-2.3125 1.4219,-1.5625 1.4219,-3.9063 0,-2.5312 -1.6407,-4.375 Q 49.3125,31 46.7812,31 q -1.6093,0 -2.6874,1.0312 -1.0782,1.0313 -1.0782,2.5938 0,2.0938 1.4375,3.6719 1.4531,1.5937 3.4531,1.8906 -1.8124,1.4219 -4.9843,1.4219 -3.2188,0 -5.5938,-2.9844 -2.3593,-2.9844 -3.3437,-6.6406 L 29.5938,14.3125 q -1.0782,-4.0156 -1.0782,-6.59375 0,-2.54687 1.4375,-4.375 1.4375,-1.82813 3.8438,-1.82813 4.6875,0 8.3593,4.125 3.6876,4.125 4.8594,9.06248 0.2032,0.5781 0.7813,0.5781 l 1.2343,0 q 0.3907,0 0.625,-0.2656 0.25,-0.2656 0.25,-0.6094 0,-0.0937 -0.0937,-0.2968 Q 48.3906,8.15625 43.8438,3.51562 39.3125,-1.125 33.5938,-1.125 q -3.6563,0 -6.6094,1.96875 -2.9532,1.98437 -4.1875,5.35937 -1.5625,-2.9375 -4.3281,-5.14062 -2.75,-2.1875 -5.875,-2.1875 -2.1407,0 -4.42192,0.765625 -2.26563,0.75 -3.6875,2.312495 -1.40626,1.5625 -1.40626,3.95313 0,2.34375 1.625,4.26565 1.64063,1.9375 4.09376,1.9375 1.65622,0 2.78122,-1 1.125,-1 1.125,-2.6094 0,-2.10938 -1.4062,-3.67188 Q 9.90625,3.26562 7.8125,2.875"
           id="Cmmi10-78"
           inkscape:connector-curvature="0"
           style="stroke-linecap:square;stroke-linejoin:round" />
      </defs>
      <g
         transform="matrix(0.1,0,0,-0.1,550.08,200.29333)"
         id="g29"
         style="stroke-linecap:square;stroke-linejoin:round">
        <use
           transform="translate(0,2.8125)"
           xlink:href="#Cmmi10-78"
           id="use31"
           style="stroke-linecap:square;stroke-linejoin:round"
           x="0"
           y="0"
           width="563"
           height="385" />
      </g>
    </g>
  </g>
  <g
     id="matplotlib.axis_2"
     style="stroke-linecap:square;stroke-linejoin:round"
     transform="matrix(3.2424055,0,0,3.2424055,-598.90116,-11.950576)">
    <g
       id="text_2"
       style="stroke-linecap:square;stroke-linejoin:round">
      <!-- $y$ -->
      <defs
         id="defs35">
        <path
           d="m 8.40625,-14.3125 q 2.09375,-3.6094 7.31255,-3.6094 4.7343,0 8.2031,3.3281 3.4687,3.3126 5.5937,8.0313 2.125,4.70312 3.2969,9.64062 -4.4375,-4.20312 -9.625,-4.20312 -3.9531,0 -6.7344,1.359375 -2.7812,1.375005 -4.3281,4.078125 -1.5312,2.71875 -1.5312,6.5781 0,3.2656 0.875,6.7032 0.8906,3.4531 2.4687,7.6718 1.5937,4.2344 2.7656,7.3594 1.3125,3.6562 1.3125,6 0,2.9844 -2.1875,2.9844 -3.9687,0 -6.53122,-4.0782 Q 6.73438,33.4531 5.51562,28.4219 5.32812,27.7812 4.6875,27.7812 l -1.17188,0 q -0.82812,0 -0.82812,0.9376 l 0,0.2812 q 1.60938,5.9688 4.92188,10.5781 3.32812,4.6094 8.40622,4.6094 3.5625,0 6.0313,-2.3437 2.4687,-2.3438 2.4687,-5.9532 0,-1.8594 -0.8281,-3.9062 -0.4375,-1.2188 -2,-5.3282 -1.5625,-4.0937 -2.4063,-6.7812 -0.8281,-2.6875 -1.3593,-5.2812 -0.5313,-2.5782 -0.5313,-5.17192 0,-3.3125 1.4063,-5.60938 1.4219,-2.29688 4.5,-2.29688 6.2031,0 11.125,7.5625 L 42,39.8906 q 0.3281,1.3282 1.5469,2.2656 1.2343,0.9532 2.6406,0.9532 1.2187,0 2.125,-0.7813 0.9063,-0.7812 0.9063,-2.0469 0,-0.5781 -0.0938,-0.7812 L 39.2031,-0.296875 Q 37.8906,-5.42188 34.375,-10.1094 q -3.5156,-4.6875 -8.4688,-7.5468 -4.9531,-2.8594 -10.3281,-2.8594 -2.5937,0 -5.1406,1.0156 -2.53125,1 -4.09375,3 -1.5625,2 -1.5625,4.6875 0,2.73438 1.60937,4.73438 1.625,2 4.29688,2 1.625,0 2.7187,-1 1.0938,-1 1.0938,-2.60938 0,-2.2969 -1.7188,-4 -1.7031,-1.7187 -3.98432,-1.7187 -0.10938,0.0468 -0.20313,0.0781 -0.09375,0.0156 -0.1875,0.0156"
           id="Cmmi10-79"
           inkscape:connector-curvature="0"
           style="stroke-linecap:square;stroke-linejoin:round" />
      </defs>
      <g
         transform="matrix(0.1,0,0,-0.1,272.14,13.8)"
         id="g38"
         style="stroke-linecap:square;stroke-linejoin:round">
        <use
           transform="translate(0,21.8125)"
           xlink:href="#Cmmi10-79"
           id="use40"
           style="stroke-linecap:square;stroke-linejoin:round"
           x="0"
           y="0"
           width="563"
           height="385" />
      </g>
    </g>
  </g>
  <g
     id="patch_4"
     style="stroke-linecap:square;stroke-linejoin:round"
     transform="translate(0,-12.8)">
    <path
       d="m 7.2,200.093 534.88,0"
       style="fill:none;stroke:#000000;stroke-width:0.80000001;stroke-linecap:square;stroke-linejoin:round;marker-start:url(#Arrow1Lstart);marker-end:url(#Arrow2Lend)"
       id="path43"
       inkscape:connector-curvature="0" />
  </g>
  <g
     id="patch_5"
     style="stroke-linecap:square;stroke-linejoin:round"
     transform="translate(0,-12.8)">
    <path
       d="m 274.64,378.387 0,-356.587"
       style="fill:none;stroke:#000000;stroke-width:0.80000001;stroke-linecap:square;stroke-linejoin:round;marker-start:url(#Arrow2Lstart);marker-end:url(#Arrow2Lend)"
       id="path46"
       inkscape:connector-curvature="0" />
  </g>
  <g
     id="text_3"
     style="stroke-linecap:square;stroke-linejoin:round"
     transform="matrix(2,0,0,2,-318.62357,-192.99441)">
    <!-- $a$ -->
    <defs
       id="defs49">
      <path
         d="m 17.3906,-1.125 q -6.3125,0 -9.9531,4.76562 -3.625,4.76563 -3.625,11.24998 0,6.4063 3.3125,13.2813 3.3281,6.8906 8.9688,11.4531 5.6406,4.5625 12.125,4.5625 2.9843,0 5.3281,-1.6094 2.3437,-1.6093 3.6562,-4.3906 1.125,4 4.4063,4 1.2656,0 2.1094,-0.7656 0.8593,-0.75 0.8593,-2.0157 0,-0.2968 -0.0312,-0.4531 -0.0157,-0.1406 -0.0625,-0.3281 L 37.5,10.6875 q -0.6875,-2.96875 -0.6875,-4.875 0,-4.29688 2.8906,-4.29688 3.125,0 4.75,3.96876 1.6407,3.98437 2.7657,9.21872 0.1874,0.5781 0.7812,0.5781 l 1.2188,0 q 0.3906,0 0.625,-0.3437 0.25,-0.3437 0.25,-0.625 Q 48.3438,7.32812 46.2656,3.09375 44.1875,-1.125 39.5,-1.125 q -3.3594,0 -5.9531,1.96875 Q 30.9531,2.82812 30.3281,6.10938 23.875,-1.125 17.3906,-1.125 m 0.0938,2.64062 q 3.6094,0 7,2.70313 3.3906,2.71875 5.8437,6.37505 0.0938,0.0937 0.0938,0.2968 l 5.375,21.7344 0.0937,0.2812 q -0.5937,3.5626 -2.5781,6.125 -1.9687,2.5782 -5.3281,2.5782 -3.375,0 -6.2813,-2.7656 -2.9062,-2.7657 -4.9062,-6.5157 -1.9531,-4 -3.7344,-10.9843 -1.7813,-6.9844 -1.7813,-10.8438 0,-3.46875 1.4844,-6.23438 1.5,-2.75 4.7188,-2.75"
         id="Cmmi10-61"
         inkscape:connector-curvature="0"
         style="stroke-linecap:square;stroke-linejoin:round" />
    </defs>
    <g
       transform="matrix(0.16,0,0,-0.16,309.01897,171.52068)"
       id="g52"
       style="stroke-linecap:square;stroke-linejoin:round">
      <use
         transform="translate(0,2.8125)"
         xlink:href="#Cmmi10-61"
         id="use54"
         style="stroke-linecap:square;stroke-linejoin:round"
         x="0"
         y="0"
         width="563"
         height="385" />
    </g>
  </g>
  <g
     id="g6601"
     transform="translate(323.52511,-230.09865)"
     style="stroke-linecap:square;stroke-linejoin:round">
    <use
       height="385"
       width="563"
       y="0"
       x="0"
       style="stroke-linecap:square;stroke-linejoin:round"
       id="use63"
       xlink:href="#Cmex10-ad"
       transform="matrix(0.32,0,0,-0.32,71.723175,268.18031)" />
    <use
       height="385"
       width="563"
       y="0"
       x="0"
       style="stroke-linecap:square;stroke-linejoin:round"
       id="use65"
       xlink:href="#Cmmi10-61"
       transform="matrix(0.32,0,0,-0.32,86.83255,295.40344)" />
    <use
       height="385"
       width="563"
       y="0"
       x="0"
       style="stroke-linecap:square;stroke-linejoin:round"
       id="use67"
       xlink:href="#Cmex10-ae"
       transform="matrix(0.32,0,0,-0.32,103.72317,268.18031)" />
  </g>
  <defs
     id="defs69">
    <clipPath
       id="pe14f5807df">
      <rect
         height="356.58667"
         width="534.88"
         x="7.1999998"
         y="21.799999"
         id="rect72"
         style="stroke-linecap:square;stroke-linejoin:round" />
    </clipPath>
  </defs>
</svg>
